<svg height="512pt" viewBox="0 0 512 512" width="512pt" xmlns="http://www.w3.org/2000/svg"><path fill="#e01d3e" d="m256 346c-5.519531 0-10 4.480469-10 10s4.480469 10 10 10 10-4.480469 10-10-4.480469-10-10-10zm0 0"/><path fill="#e01d3e" d="m256 0c-138.011719 0-256 117.816406-256 256 0 137.929688 117.71875 256 256 256 137.929688 0 256-117.71875 256-256 0-138.011719-117.816406-256-256-256zm0 492c-127.925781 0-236-108.074219-236-236s108.074219-236 236-236 236 108.074219 236 236-108.074219 236-236 236zm0 0"/><path fill="#e01d3e" d="m256 66c-104.765625 0-190 85.234375-190 190 0 103.945312 84.351562 190 190 190 104.4375 0 190-84.902344 190-190 0-105.113281-85.585938-190-190-190zm0 180c5.515625 0 10 4.484375 10 10s-4.484375 10-10 10-10-4.484375-10-10 4.484375-10 10-10zm93.476562 151.90625-14.816406-25.667969c-2.761718-4.777343-8.875-6.417969-13.660156-3.660156-4.78125 2.761719-6.421875 8.878906-3.660156 13.660156l14.835937 25.695313c-20.570312 10.34375-43.117187 16.394531-66.175781 17.753906v-29.6875c0-5.523438-4.476562-10-10-10s-10 4.476562-10 10v29.691406c-23.054688-1.363281-45.605469-7.414062-66.175781-17.757812l14.835937-25.695313c2.761719-4.78125 1.121094-10.898437-3.660156-13.660156-4.785156-2.761719-10.898438-1.121094-13.660156 3.660156l-14.820313 25.667969c-19.222656-12.703125-35.722656-29.203125-48.425781-48.429688l25.667969-14.816406c4.78125-2.761718 6.421875-8.878906 3.660156-13.660156s-8.875-6.421875-13.660156-3.660156l-25.695313 14.835937c-10.34375-20.570312-16.394531-43.117187-17.757812-66.175781h29.691406c5.523438 0 10-4.476562 10-10s-4.476562-10-10-10h-29.699219c5.003907-85.789062 73.910157-154.695312 159.699219-159.699219v141.417969c-8.507812 3.019531-15.261719 9.773438-18.28125 18.28125h-71.71875c-5.523438 0-10 4.476562-10 10s4.476562 10 10 10h71.71875c4.128906 11.640625 15.246094 20 28.28125 20 16.542969 0 30-13.457031 30-30 0-13.035156-8.359375-24.152344-20-28.28125v-141.410156c23.054688 1.363281 45.605469 7.414062 66.175781 17.757812l-14.835937 25.695313c-2.761719 4.78125-1.121094 10.898437 3.660156 13.660156 4.773438 2.753906 10.894531 1.128906 13.660156-3.660156l14.820313-25.667969c19.222656 12.703125 35.722656 29.203125 48.425781 48.429688l-25.667969 14.816406c-4.78125 2.761718-6.421875 8.878906-3.660156 13.660156 2.765625 4.789062 8.886719 6.417969 13.660156 3.660156l25.695313-14.835937c10.34375 20.570312 16.394531 43.117187 17.753906 66.175781h-29.6875c-5.523438 0-10 4.476562-10 10s4.476562 9.988281 10 9.988281h29.691406c-1.363281 23.058594-7.414062 45.617188-17.757812 66.1875l-25.695313-14.835937c-4.78125-2.761719-10.898437-1.121094-13.660156 3.660156s-1.121094 10.898438 3.660156 13.660156l25.667969 14.820313c-12.703125 19.222656-29.203125 35.722656-48.429688 48.425781zm0 0"/></svg>